STARTFONT 2.1
FONT -FontForge-Source Sans Pro Black-Black-R-Normal-SansPro--42-400-75-75-P-224-ISO10646-1
SIZE 40 75 75
FONTBOUNDINGBOX 110 58 -19 -14
COMMENT "Generated by fontforge, http://fontforge.sourceforge.net"
COMMENT "Copyright 2010, 2012, 2014 Adobe Systems Incorporated (http://www.adobe.com/), with Reserved Font Name `Source'."
STARTPROPERTIES 40
FOUNDRY "FontForge"
FAMILY_NAME "Source Sans Pro Black"
WEIGHT_NAME "Black"
SLANT "R"
SETWIDTH_NAME "Normal"
ADD_STYLE_NAME "SansPro"
PIXEL_SIZE 42
POINT_SIZE 400
RESOLUTION_X 75
RESOLUTION_Y 75
SPACING "P"
AVERAGE_WIDTH 224
CHARSET_REGISTRY "ISO10646"
CHARSET_ENCODING "1"
FONTNAME_REGISTRY ""
CHARSET_COLLECTIONS "ISO8859-2 ISO8859-5 ISO8859-7 ISO8859-9 ISO8859-4 ISO10646-1"
FONT_NAME "SourceSansPro-Black"
FACE_NAME "Source Sans Pro Black"
COPYRIGHT "Copyright 2010, 2012, 2014 Adobe Systems Incorporated (http://www.adobe.com/), with Reserved Font Name `Source'."
FONT_VERSION "2.021;PS 2.000;hotconv 1.0.86;makeotf.lib2.5.63406"
FONT_ASCENT 32
FONT_DESCENT 10
UNDERLINE_POSITION -4
UNDERLINE_THICKNESS 3
X_HEIGHT 19
CAP_HEIGHT 27
RAW_ASCENT 750
RAW_DESCENT 250
NORM_SPACE 8
RELATIVE_WEIGHT 90
RELATIVE_SETWIDTH 50
SUPERSCRIPT_X 0
SUPERSCRIPT_Y 14
SUPERSCRIPT_SIZE 25
SUBSCRIPT_X 0
SUBSCRIPT_Y 3
SUBSCRIPT_SIZE 25
FIGURE_WIDTH 23
AVG_LOWERCASE_WIDTH 230
AVG_UPPERCASE_WIDTH 274
ENDPROPERTIES
CHARS 1896
STARTCHAR space
ENCODING 32
SWIDTH 200 0
DWIDTH 8 0
BBX 1 1 0 0
BITMAP
00
ENDCHAR
STARTCHAR exclam
ENCODING 33
SWIDTH 360 0
DWIDTH 15 0
BBX 9 29 3 0
BITMAP
7F00
7F00
7F00
7F00
7F00
7F00
7F00
7F00
7F00
7F00
3F00
3E00
3E00
3E00
3E00
3E00
3E00
3E00
0000
0000
1E00
7F00
7F00
FF80
FF80
FF80
7F00
7F00
3E00
ENDCHAR
STARTCHAR quotedbl
ENCODING 34
SWIDTH 580 0
DWIDTH 24 0
BBX 18 15 3 14
BITMAP
FE1FC0
FE1FC0
FE1FC0
FE1FC0
FE1FC0
FE1FC0
FE1FC0
7E1FC0
7E0FC0
7E0F80
7C0F80
7C0F80
7C0F80
3C0F80
3C0780
ENDCHAR
STARTCHAR numbersign
ENCODING 35
SWIDTH 540 0
DWIDTH 23 0
BBX 20 27 1 0
BITMAP
03C3C0
03C3C0
03C3C0
07C7C0
078780
078780
078780
7FFFF0
7FFFF0
7FFFF0
7FFFF0
7FFFF0
0F8F00
0F0F00
0F0F00
FFFFF0
FFFFF0
FFFFF0
FFFFF0
FFFFF0
1F1E00
1E1E00
1E1E00
1E1E00
1E1E00
1E1E00
1E1E00
ENDCHAR
STARTCHAR dollar
ENCODING 36
SWIDTH 540 0
DWIDTH 23 0
BBX 19 35 1 -4
BITMAP
00F800
00F800
00F800
00F800
03FE00
0FFF80
1FFFC0
1FFFE0
3FFFC0
3F8780
3F0100
7F0000
7F8000
3FC000
3FF000
3FFC00
1FFF00
0FFF80
03FFC0
00FFC0
003FE0
001FE0
000FE0
000FE0
180FE0
3E1FE0
3FFFC0
7FFFC0
FFFF80
1FFF00
07F800
00F800
00F800
00F800
00F800
ENDCHAR
STARTCHAR percent
ENCODING 37
SWIDTH 870 0
DWIDTH 37 0
BBX 35 28 1 0
BITMAP
0FC003E000
1FE003C000
3FF0078000
7FF8078000
7CF80F0000
F87C0F0000
F87C1E0000
F87C1E0000
F87C3C0000
F87C3C0000
F87C780000
F87C787C00
7CF8F1FF00
7FF8F3FF80
3FF1E3FF80
1FE1E7C7C0
0FC3C7C7C0
0007C7C7C0
00078783E0
000F0F83E0
000F0783E0
001E07C7C0
001E07C7C0
003C07C7C0
003C03FF80
007803FF80
007801FF00
00F0007C00
ENDCHAR
STARTCHAR ampersand
ENCODING 38
SWIDTH 690 0
DWIDTH 29 0
BBX 27 28 1 0
BITMAP
00FC0000
03FF0000
07FF8000
0FFFC000
0FFFC000
1FCFC000
1F87C000
1F87C000
1F8FC000
1FDF8000
0FFF8000
0FFF0000
07FE0FE0
1FF80FE0
3FF80FC0
7FFE1FC0
7FFF1F80
FFFFBF80
FE7FFF00
FE3FFF00
FE1FFE00
FE0FFF00
FF0FFFE0
7FFFFFE0
7FFFFFE0
3FFFFFC0
1FFF9FC0
03FC01C0
ENDCHAR
STARTCHAR quotesingle
ENCODING 39
SWIDTH 320 0
DWIDTH 13 0
BBX 7 15 3 14
BITMAP
FE
FE
FE
FE
FE
FE
FE
7E
7E
7E
7C
7C
7C
3C
3C
ENDCHAR
STARTCHAR parenleft
ENCODING 40
SWIDTH 360 0
DWIDTH 15 0
BBX 10 38 3 -7
BITMAP
0600
0780
0FC0
1F80
1F80
1F00
3F00
3E00
7E00
7E00
7E00
7C00
FC00
FC00
FC00
FC00
FC00
FC00
FC00
FC00
FC00
FC00
FC00
FC00
FC00
FC00
7C00
7E00
7E00
7E00
3E00
3F00
1F00
1F80
1F80
0FC0
0F80
0600
ENDCHAR
STARTCHAR parenright
ENCODING 41
SWIDTH 360 0
DWIDTH 15 0
BBX 10 38 2 -7
BITMAP
1800
7C00
FC00
7E00
7E00
3F00
3F00
1F00
1F80
1F80
1F80
0F80
0FC0
0FC0
0FC0
0FC0
0FC0
0FC0
0FC0
0FC0
0FC0
0FC0
0FC0
0FC0
0FC0
0FC0
0F80
1F80
1F80
1F80
1F00
3F00
3F00
7E00
7E00
7C00
FC00
1800
ENDCHAR
STARTCHAR asterisk
ENCODING 42
SWIDTH 472 0
DWIDTH 20 0
BBX 18 16 1 14
BITMAP
01E000
01E000
01E000
01E000
61E180
7FFF80
7FFF80
FFFFC0
3FFF00
0FF800
07F800
0FFC00
1FFC00
1F3E00
3E1E00
0C0C00
ENDCHAR
STARTCHAR plus
ENCODING 43
SWIDTH 540 0
DWIDTH 23 0
BBX 20 21 1 3
BITMAP
00F800
00F800
00F800
00F800
00F800
00F800
00F800
00F800
FFFFF0
FFFFF0
FFFFF0
FFFFF0
FFFFF0
00F800
00F800
00F800
00F800
00F800
00F800
00F800
00F800
ENDCHAR
STARTCHAR comma
ENCODING 44
SWIDTH 320 0
DWIDTH 13 0
BBX 10 17 2 -9
BITMAP
1E00
7F00
7F80
7F80
7F80
7FC0
7FC0
1FC0
07C0
0780
0F80
1F80
3F00
FE00
FC00
7800
6000
ENDCHAR
STARTCHAR hyphen
ENCODING 45
SWIDTH 340 0
DWIDTH 14 0
BBX 10 5 2 8
BITMAP
FFC0
FFC0
FFC0
FFC0
FFC0
ENDCHAR
STARTCHAR period
ENCODING 46
SWIDTH 320 0
DWIDTH 13 0
BBX 8 9 3 0
BITMAP
3C
7E
FF
FF
FF
FF
FF
7E
3C
ENDCHAR
STARTCHAR slash
ENCODING 47
SWIDTH 334 0
DWIDTH 14 0
BBX 12 37 1 -7
BITMAP
01F0
01E0
03E0
03E0
03E0
03E0
03C0
07C0
07C0
07C0
07C0
0780
0F80
0F80
0F80
0F80
0F00
1F00
1F00
1F00
1F00
1E00
3E00
3E00
3E00
3E00
3C00
7C00
7C00
7C00
7C00
7800
F800
F800
F800
F800
F000
ENDCHAR
STARTCHAR zero
ENCODING 48
SWIDTH 540 0
DWIDTH 23 0
BBX 20 27 1 0
BITMAP
01F800
07FF00
0FFF80
1FFFC0
3FFFC0
3F8FE0
7F07E0
7F07F0
7F07F0
7E07F0
7E07F0
FE07F0
FE07F0
FE07F0
FE07F0
FE07F0
7E07F0
7E07F0
7F07F0
7F07E0
3F0FE0
3F8FE0
3FFFC0
1FFFC0
0FFF80
07FE00
01F800
ENDCHAR
STARTCHAR one
ENCODING 49
SWIDTH 540 0
DWIDTH 23 0
BBX 18 27 3 0
BITMAP
01F800
07F800
3FF800
FFF800
FFF800
FFF800
FFF800
FFF800
07F800
07F800
07F800
07F800
07F800
07F800
07F800
07F800
07F800
07F800
07F800
07F800
07F800
07F800
FFFFC0
FFFFC0
FFFFC0
FFFFC0
FFFFC0
ENDCHAR
STARTCHAR two
ENCODING 50
SWIDTH 540 0
DWIDTH 23 0
BBX 20 27 1 0
BITMAP
03F800
1FFE00
3FFF00
7FFF80
FFFFC0
3C3FC0
181FC0
100FC0
000FE0
000FE0
001FC0
001FC0
001FC0
003F80
007F80
00FF00
00FF00
01FE00
03FC00
07F800
0FF800
1FF000
3FFFF0
7FFFF0
7FFFF0
7FFFF0
7FFFF0
ENDCHAR
STARTCHAR three
ENCODING 51
SWIDTH 540 0
DWIDTH 23 0
BBX 20 27 1 0
BITMAP
03F800
1FFF00
7FFF80
7FFFC0
3FFFC0
1E1FE0
081FE0
000FE0
001FE0
001FC0
003FC0
03FF80
03FF00
03FE00
03FF80
03FFC0
003FE0
000FE0
000FF0
200FF0
300FF0
3C1FE0
7FFFE0
FFFFC0
7FFF80
3FFF00
07F800
ENDCHAR
STARTCHAR four
ENCODING 52
SWIDTH 540 0
DWIDTH 23 0
BBX 21 27 1 0
BITMAP
007FC0
00FFC0
01FFC0
01FFC0
03FFC0
03FFC0
07FFC0
07FFC0
0FDFC0
0FDFC0
1F9FC0
3F9FC0
3F1FC0
7F1FC0
7E1FC0
FE1FC0
FFFFF8
FFFFF8
FFFFF8
FFFFF8
FFFFF8
001FC0
001FC0
001FC0
001FC0
001FC0
001FC0
ENDCHAR
STARTCHAR five
ENCODING 53
SWIDTH 540 0
DWIDTH 23 0
BBX 20 27 1 0
BITMAP
1FFFC0
1FFFC0
1FFFC0
1FFFC0
3FFFC0
3F8000
3F8000
3F8000
3F8000
3FFC00
3FFF00
3FFFC0
3FFFC0
3FFFE0
0E1FE0
000FE0
000FF0
000FF0
000FF0
200FE0
300FE0
3C1FE0
7FFFC0
FFFFC0
7FFF80
1FFE00
07F800
ENDCHAR
STARTCHAR six
ENCODING 54
SWIDTH 540 0
DWIDTH 23 0
BBX 19 27 2 0
BITMAP
01FC00
07FF80
0FFFC0
1FFFE0
3FFF80
3F8700
7F0100
7E0000
FE0000
FE0000
FC7C00
FDFF00
FFFF80
FFFFC0
FFFFE0
FF0FE0
FE0FE0
FC07E0
FE07E0
FE07E0
7E0FE0
7F1FE0
3FFFC0
3FFFC0
1FFF80
07FE00
01F800
ENDCHAR
STARTCHAR seven
ENCODING 55
SWIDTH 540 0
DWIDTH 23 0
BBX 19 27 2 0
BITMAP
FFFFE0
FFFFE0
FFFFE0
FFFFE0
FFFFC0
001F80
003F00
003F00
007E00
007E00
00FC00
00FC00
01FC00
01F800
03F800
03F800
03F800
03F000
07F000
07F000
07F000
07F000
07F000
07F000
07F000
0FF000
0FF000
ENDCHAR
STARTCHAR eight
ENCODING 56
SWIDTH 540 0
DWIDTH 23 0
BBX 19 27 2 0
BITMAP
03F800
0FFE00
3FFF00
3FFF80
7FFF80
7F1FC0
7E0FC0
7E0FC0
7E0FC0
7F8F80
7FFF80
3FFF00
1FFC00
0FFF00
1FFF80
7FFFC0
7E3FC0
FC1FE0
FC0FE0
FC0FE0
FC0FE0
FE1FE0
FFFFC0
7FFFC0
3FFF80
1FFE00
07F800
ENDCHAR
STARTCHAR nine
ENCODING 57
SWIDTH 540 0
DWIDTH 23 0
BBX 20 27 1 0
BITMAP
03F800
0FFE00
1FFF00
3FFF80
7FFFC0
7F1FC0
7E0FE0
FE07E0
FE07F0
FE07F0
FE07F0
7F0FF0
7FFFF0
7FFFF0
3FFFF0
1FF7F0
07E7F0
0007F0
0007E0
000FE0
080FE0
1C1FC0
3FFF80
7FFF80
7FFF00
1FFC00
07F000
ENDCHAR
STARTCHAR colon
ENCODING 58
SWIDTH 320 0
DWIDTH 13 0
BBX 8 22 3 0
BITMAP
3C
7E
FF
FF
FF
FF
FF
7E
3C
00
00
00
00
3C
7E
FF
FF
FF
FF
FF
7E
3C
ENDCHAR
STARTCHAR semicolon
ENCODING 59
SWIDTH 320 0
DWIDTH 13 0
BBX 10 31 2 -9
BITMAP
1E00
3F00
7F80
7F80
7F80
7F80
7F80
3F00
1E00
0000
0000
0000
0000
0000
1E00
7F00
7F80
7F80
7F80
7FC0
7FC0
1FC0
07C0
0780
0F80
1F80
3F00
FE00
FC00
7800
6000
ENDCHAR
STARTCHAR less
ENCODING 60
SWIDTH 540 0
DWIDTH 23 0
BBX 20 20 1 4
BITMAP
000010
0000F0
0003F0
001FF0
00FFF0
03FFF0
1FFFC0
7FFE00
FFF000
FF8000
FF8000
FFF000
7FFE00
1FFFC0
03FFF0
00FFF0
001FF0
0003F0
0000F0
000010
ENDCHAR
STARTCHAR equal
ENCODING 61
SWIDTH 540 0
DWIDTH 23 0
BBX 20 15 1 6
BITMAP
FFFFF0
FFFFF0
FFFFF0
FFFFF0
FFFFF0
000000
000000
000000
000000
000000
FFFFF0
FFFFF0
FFFFF0
FFFFF0
FFFFF0
ENDCHAR
STARTCHAR greater
ENCODING 62
SWIDTH 540 0
DWIDTH 23 0
BBX 20 20 1 4
BITMAP
C00000
F00000
FE0000
FFC000
FFF000
FFFE00
3FFFC0
03FFF0
007FF0
000FF0
000FF0
007FF0
03FFF0
3FFF80
FFFE00
FFF000
FFC000
FE0000
F00000
C00000
ENDCHAR
STARTCHAR question
ENCODING 63
SWIDTH 478 0
DWIDTH 20 0
BBX 16 28 2 0
BITMAP
07F0
3FFC
7FFE
FFFF
7FFF
387F
107F
007F
007F
00FF
01FE
03FC
07F8
07F0
0FE0
0FE0
0FE0
0000
0000
0780
0FE0
0FE0
1FF0
1FF0
1FF0
0FE0
0FE0
0780
ENDCHAR
STARTCHAR at
ENCODING 64
SWIDTH 924 0
DWIDTH 39 0
BBX 35 37 2 -8
BITMAP
0001FF0000
000FFFE000
003FFFF000
00FFFFFC00
01FFFFFE00
03FE01FF00
07F8007F00
0FE0001F80
1FC0000F80
1F800007C0
3F01E7C7C0
3E07F7C3C0
7E0FFF83E0
7C1FFF83E0
7C1FFF83E0
F83F1F83E0
F83E1F03E0
F87E1F03E0
F87C1F03E0
F87C1F03C0
F87C1F07C0
F87E3F0FC0
F87FFFFF80
F87FFFFF00
F83FEFFF00
7C1FCFFC00
7C0F87F800
7E00000000
3F00000000
3F80000000
1FE0020000
0FF80F0000
0FFFFF0000
03FFFF0000
01FFFF8000
007FFE0000
000FF80000
ENDCHAR
STARTCHAR A
ENCODING 65
SWIDTH 584 0
DWIDTH 25 0
BBX 25 28 0 0
BITMAP
00FF8000
01FF8000
01FF8000
01FFC000
01FFC000
03FFC000
03FFE000
03F7E000
07E7E000
07E7E000
07E7F000
0FE3F000
0FC3F000
0FC3F800
0FC3F800
1FC1F800
1FFFFC00
1FFFFC00
3FFFFC00
3FFFFC00
3FFFFE00
3FFFFE00
7F00FE00
7F00FF00
7F007F00
FF007F00
FE007F80
FE007F80
ENDCHAR
STARTCHAR B
ENCODING 66
SWIDTH 612 0
DWIDTH 26 0
BBX 21 28 3 0
BITMAP
FFFE00
FFFF80
FFFFE0
FFFFE0
FFFFF0
FFFFF0
FE0FF0
FE07F0
FE07F0
FE0FF0
FFFFE0
FFFFE0
FFFFC0
FFFF80
FFFFE0
FFFFF0
FE07F8
FE03F8
FE03F8
FE03F8
FE03F8
FE07F8
FFFFF8
FFFFF8
FFFFF0
FFFFE0
FFFFC0
FFFE00
ENDCHAR
STARTCHAR C
ENCODING 67
SWIDTH 586 0
DWIDTH 25 0
BBX 22 28 2 0
BITMAP
007F80
01FFE0
07FFF0
0FFFFC
1FFFF8
3FFFF0
3FE1E0
7FC040
7F8000
FF0000
FF0000
FE0000
FE0000
FE0000
FE0000
FE0000
FE0000
FF0000
FF0000
7F8000
7F8060
7FE0F0
3FFFF8
1FFFF8
0FFFFC
07FFF0
03FFE0
007F80
ENDCHAR
STARTCHAR D
ENCODING 68
SWIDTH 642 0
DWIDTH 27 0
BBX 22 28 3 0
BITMAP
FFF800
FFFF00
FFFF80
FFFFC0
FFFFE0
FFFFF0
FE1FF8
FE07F8
FE07F8
FE03FC
FE03FC
FE01FC
FE01FC
FE01FC
FE01FC
FE01FC
FE03FC
FE03FC
FE03FC
FE07F8
FE07F8
FE1FF8
FFFFF0
FFFFE0
FFFFC0
FFFF80
FFFF00
FFF800
ENDCHAR
STARTCHAR E
ENCODING 69
SWIDTH 556 0
DWIDTH 23 0
BBX 18 28 3 0
BITMAP
FFFFC0
FFFFC0
FFFFC0
FFFFC0
FFFFC0
FFFFC0
FE0000
FE0000
FE0000
FE0000
FE0000
FFFF00
FFFF00
FFFF00
FFFF00
FFFF00
FFFF00
FE0000
FE0000
FE0000
FE0000
FE0000
FFFFC0
FFFFC0
FFFFC0
FFFFC0
FFFFC0
FFFFC0
ENDCHAR
STARTCHAR F
ENCODING 70
SWIDTH 536 0
DWIDTH 23 0
BBX 18 28 3 0
BITMAP
FFFFC0
FFFFC0
FFFFC0
FFFFC0
FFFFC0
FFFFC0
FE0000
FE0000
FE0000
FE0000
FE0000
FE0000
FFFF00
FFFF00
FFFF00
FFFF00
FFFF00
FFFF00
FE0000
FE0000
FE0000
FE0000
FE0000
FE0000
FE0000
FE0000
FE0000
FE0000
ENDCHAR
STARTCHAR G
ENCODING 71
SWIDTH 646 0
DWIDTH 27 0
BBX 23 28 2 0
BITMAP
003F80
01FFF0
07FFF8
0FFFFC
1FFFFC
3FFFF8
3FE0F0
7FC020
7F8000
FF0000
FF0000
FE0000
FE0FFE
FE0FFE
FE0FFE
FE0FFE
FE0FFE
FF0FFE
FF00FE
7F80FE
7FC0FE
7FE0FE
3FFFFE
1FFFFE
0FFFFE
07FFFC
01FFF0
007FC0
ENDCHAR
STARTCHAR H
ENCODING 72
SWIDTH 682 0
DWIDTH 29 0
BBX 23 28 3 0
BITMAP
FE01FE
FE01FE
FE01FE
FE01FE
FE01FE
FE01FE
FE01FE
FE01FE
FE01FE
FE01FE
FE01FE
FFFFFE
FFFFFE
FFFFFE
FFFFFE
FFFFFE
FFFFFE
FE01FE
FE01FE
FE01FE
FE01FE
FE01FE
FE01FE
FE01FE
FE01FE
FE01FE
FE01FE
FE01FE
ENDCHAR
STARTCHAR I
ENCODING 73
SWIDTH 316 0
DWIDTH 13 0
BBX 7 28 3 0
BITMAP
FE
FE
FE
FE
FE
FE
FE
FE
FE
FE
FE
FE
FE
FE
FE
FE
FE
FE
FE
FE
FE
FE
FE
FE
FE
FE
FE
FE
ENDCHAR
STARTCHAR J
ENCODING 74
SWIDTH 520 0
DWIDTH 22 0
BBX 19 28 0 0
BITMAP
000FE0
000FE0
000FE0
000FE0
000FE0
000FE0
000FE0
000FE0
000FE0
000FE0
000FE0
000FE0
000FE0
000FE0
000FE0
000FE0
000FE0
000FE0
000FE0
080FE0
0C1FE0
3E1FE0
7FFFC0
FFFFC0
7FFF80
3FFF00
0FFE00
03F800
ENDCHAR
STARTCHAR K
ENCODING 75
SWIDTH 628 0
DWIDTH 26 0
BBX 24 28 3 0
BITMAP
FE03FC
FE07F8
FE07F0
FE0FF0
FE1FE0
FE1FC0
FE3FC0
FE7F80
FE7F00
FEFE00
FFFE00
FFFC00
FFFE00
FFFE00
FFFF00
FFFF00
FFFF80
FFFFC0
FF9FC0
FF1FE0
FF0FE0
FE0FF0
FE07F8
FE07F8
FE03FC
FE01FC
FE01FE
FE00FF
ENDCHAR
STARTCHAR L
ENCODING 76
SWIDTH 530 0
DWIDTH 22 0
BBX 18 28 3 0
BITMAP
FE0000
FE0000
FE0000
FE0000
FE0000
FE0000
FE0000
FE0000
FE0000
FE0000
FE0000
FE0000
FE0000
FE0000
FE0000
FE0000
FE0000
FE0000
FE0000
FE0000
FE0000
FE0000
FFFFC0
FFFFC0
FFFFC0
FFFFC0
FFFFC0
FFFFC0
ENDCHAR
STARTCHAR M
ENCODING 77
SWIDTH 776 0
DWIDTH 33 0
BBX 27 28 3 0
BITMAP
FF001FE0
FF003FE0
FF803FE0
FF803FE0
FF807FE0
FFC07FE0
FFC07FE0
FFC0FFE0
FFE0FFE0
FFE0FFE0
FFE1FFE0
FFF1F7E0
FDF1F7E0
FDF3FFE0
FDFBEFE0
FCFBEFE0
FCFFEFE0
FCFFCFE0
FC7FCFE0
FC7F8FE0
FC7F8FE0
FC3F8FE0
FC3F0FE0
FC3F0FE0
FC1F0FE0
FC1E0FE0
FC000FE0
FC000FE0
ENDCHAR
STARTCHAR N
ENCODING 78
SWIDTH 672 0
DWIDTH 28 0
BBX 22 28 3 0
BITMAP
FF01FC
FF01FC
FF81FC
FF81FC
FFC1FC
FFC1FC
FFE1FC
FFE1FC
FFF1FC
FFF1FC
FDF1FC
FDF9FC
FCF8FC
FCFCFC
FEFCFC
FE7EFC
FE7EFC
FE3FFC
FE3FFC
FE1FFC
FE1FFC
FE0FFC
FE0FFC
FE07FC
FE07FC
FE03FC
FE03FC
FE01FC
ENDCHAR
STARTCHAR O
ENCODING 79
SWIDTH 692 0
DWIDTH 29 0
BBX 25 28 2 0
BITMAP
007F0000
03FFE000
07FFF000
1FFFFC00
1FFFFC00
3FFFFE00
7FC1FF00
7F80FF00
7F007F00
FF007F80
FF007F80
FE003F80
FE003F80
FE003F80
FE003F80
FE003F80
FE003F80
FF007F80
FF007F80
7F007F00
7F80FF00
7FC1FF00
3FFFFE00
1FFFFC00
0FFFFC00
07FFF000
03FFE000
007F0000
ENDCHAR
STARTCHAR P
ENCODING 80
SWIDTH 608 0
DWIDTH 26 0
BBX 21 28 3 0
BITMAP
FFFC00
FFFF80
FFFFC0
FFFFE0
FFFFF0
FFFFF0
FE0FF8
FE03F8
FE03F8
FE03F8
FE03F8
FE07F8
FE0FF8
FFFFF0
FFFFF0
FFFFE0
FFFFC0
FFFF00
FFFC00
FE0000
FE0000
FE0000
FE0000
FE0000
FE0000
FE0000
FE0000
FE0000
ENDCHAR
STARTCHAR Q
ENCODING 81
SWIDTH 692 0
DWIDTH 29 0
BBX 27 36 2 -8
BITMAP
007F0000
03FFE000
07FFF000
1FFFFC00
1FFFFC00
3FFFFE00
7FC1FF00
7F80FF00
7F007F00
FF007F80
FF007F80
FE003F80
FE003F80
FE003F80
FE003F80
FE003F80
FE003F80
FF007F80
FF007F80
7F007F80
7F80FF00
7FC1FF00
3FFFFE00
3FFFFE00
1FFFFC00
0FFFF800
03FFE000
00FF8000
007FC000
003FE040
001FFFC0
001FFFC0
000FFFC0
0003FFE0
0001FFE0
00003FC0
ENDCHAR
STARTCHAR R
ENCODING 82
SWIDTH 630 0
DWIDTH 26 0
BBX 23 28 3 0
BITMAP
FFFE00
FFFF80
FFFFE0
FFFFF0
FFFFF0
FFFFF8
FE07F8
FE03F8
FE03F8
FE03F8
FE03F8
FE03F8
FE0FF8
FFFFF0
FFFFF0
FFFFE0
FFFFC0
FFFF80
FFFF80
FE3FC0
FE1FE0
FE1FE0
FE0FF0
FE0FF0
FE07F8
FE07F8
FE03FC
FE03FE
ENDCHAR
STARTCHAR S
ENCODING 83
SWIDTH 564 0
DWIDTH 24 0
BBX 21 28 1 0
BITMAP
00FE00
03FFC0
0FFFE0
1FFFF8
3FFFF0
3FFFE0
3F83C0
7F8080
7F8000
7FC000
3FF000
3FFE00
3FFF80
1FFFE0
0FFFF0
03FFF0
00FFF8
001FF8
0007F8
0803F8
1C03F8
1F07F8
3FFFF8
7FFFF0
FFFFE0
3FFFC0
0FFF80
01FE00
ENDCHAR
STARTCHAR T
ENCODING 84
SWIDTH 564 0
DWIDTH 24 0
BBX 22 28 1 0
BITMAP
FFFFFC
FFFFFC
FFFFFC
FFFFFC
FFFFFC
FFFFFC
01FC00
01FC00
01FC00
01FC00
01FC00
01FC00
01FC00
01FC00
01FC00
01FC00
01FC00
01FC00
01FC00
01FC00
01FC00
01FC00
01FC00
01FC00
01FC00
01FC00
01FC00
01FC00
ENDCHAR
STARTCHAR U
ENCODING 85
SWIDTH 672 0
DWIDTH 28 0
BBX 22 28 3 0
BITMAP
FE01FC
FE01FC
FE01FC
FE01FC
FE01FC
FE01FC
FE01FC
FE01FC
FE01FC
FE01FC
FE01FC
FE01FC
FE01FC
FE01FC
FE01FC
FE01FC
FE01FC
FE01FC
FE01FC
FF01FC
7F03FC
7F87F8
7FFFF8
3FFFF0
1FFFF0
1FFFE0
07FF80
01FE00
ENDCHAR
STARTCHAR V
ENCODING 86
SWIDTH 572 0
DWIDTH 24 0
BBX 24 28 0 0
BITMAP
FE007F
FF007F
FF00FF
7F00FE
7F00FE
7F00FE
7F80FE
3F81FC
3F81FC
3F81FC
1FC1F8
1FC3F8
1FC3F8
1FC3F8
0FE3F0
0FE3F0
0FE7F0
07E7E0
07E7E0
07F7E0
07FFE0
03FFC0
03FFC0
03FFC0
01FF80
01FF80
01FF80
01FF80
ENDCHAR
STARTCHAR W
ENCODING 87
SWIDTH 824 0
DWIDTH 35 0
BBX 34 28 0 0
BITMAP
FF03F81FC0
7F03F81FC0
7F03F81FC0
7F03F81FC0
7F03FC1F80
7F07FC1F80
3F87FC3F80
3F87FC3F80
3F87FC3F80
3F8FFE3F80
3F8FFE3F80
3F8FBE3F00
1F8FBE3F00
1F8FBE3F00
1FCFBF3F00
1FDF3F7F00
1FDF3F7F00
1FDF1F7E00
0FDF1F7E00
0FDF1F7E00
0FFF1FFE00
0FFE1FFE00
0FFE1FFE00
0FFE0FFC00
07FE0FFC00
07FE0FFC00
07FC0FFC00
07FC0FFC00
ENDCHAR
STARTCHAR X
ENCODING 88
SWIDTH 588 0
DWIDTH 25 0
BBX 24 28 0 0
BITMAP
7F80FF
3FC0FE
3FC1FE
1FC1FC
1FE1FC
0FE3F8
0FF3F8
07F7F0
07F7F0
03FFE0
03FFE0
01FFC0
01FFC0
00FF80
01FF80
01FFC0
03FFC0
03FFE0
07FFE0
07F7F0
0FE7F0
0FE7F8
1FC3F8
1FC3FC
3FC1FC
3F81FE
7F80FF
FF00FF
ENDCHAR
STARTCHAR Y
ENCODING 89
SWIDTH 544 0
DWIDTH 23 0
BBX 23 28 0 0
BITMAP
FE00FE
FF01FE
7F01FC
7F83FC
3F83F8
3F83F8
3FC7F0
1FC7F0
1FC7E0
0FEFE0
0FEFE0
07EFC0
07FFC0
03FF80
03FF80
01FF00
01FF00
01FE00
00FE00
00FE00
00FE00
00FE00
00FE00
00FE00
00FE00
00FE00
00FE00
00FE00
ENDCHAR
STARTCHAR Z
ENCODING 90
SWIDTH 542 0
DWIDTH 23 0
BBX 21 28 1 0
BITMAP
7FFFF0
7FFFF0
7FFFF0
7FFFF0
7FFFF0
7FFFF0
001FE0
001FC0
003FC0
007F80
007F00
00FF00
01FE00
01FE00
03FC00
03F800
07F800
0FF000
0FE000
1FE000
1FC000
3FC000
7FFFF8
7FFFF8
FFFFF8
FFFFF8
FFFFF8
FFFFF8
ENDCHAR
STARTCHAR bracketleft
ENCODING 91
SWIDTH 360 0
DWIDTH 15 0
BBX 9 36 4 -6
BITMAP
FF80
FF80
FF80
FF80
F800
F800
F800
F800
F800
F800
F800
F800
F800
F800
F800
F800
F800
F800
F800
F800
F800
F800
F800
F800
F800
F800
F800
F800
F800
F800
F800
F800
FF80
FF80
FF80
FF80
ENDCHAR
STARTCHAR backslash
ENCODING 92
SWIDTH 334 0
DWIDTH 14 0
BBX 12 37 1 -7
BITMAP
F800
7800
7C00
7C00
7C00
3C00
3C00
3E00
3E00
3E00
1E00
1E00
1F00
1F00
1F00
0F00
0F00
0F80
0F80
0F80
0780
0780
07C0
07C0
07C0
03C0
03C0
03E0
03E0
03E0
01E0
01E0
01F0
01F0
01F0
00F0
00F0
ENDCHAR
STARTCHAR bracketright
ENCODING 93
SWIDTH 360 0
DWIDTH 15 0
BBX 10 36 2 -6
BITMAP
FFC0
FFC0
FFC0
FFC0
0FC0
0FC0
0FC0
0FC0
0FC0
0FC0
0FC0
0FC0
0FC0
0FC0
0FC0
0FC0
0FC0
0FC0
0FC0
0FC0
0FC0
0FC0
0FC0
0FC0
0FC0
0FC0
0FC0
0FC0
0FC0
0FC0
0FC0
0FC0
FFC0
FFC0
FFC0
FFC0
ENDCHAR
STARTCHAR asciicircum
ENCODING 94
SWIDTH 540 0
DWIDTH 23 0
BBX 19 17 2 11
BITMAP
03F000
03F800
03F800
07FC00
07FC00
0FFC00
0FBE00
0FBE00
1FBE00
1F3F00
3F1F00
3F1F80
3E1F80
7E0F80
7E0FC0
FC0FC0
FC07E0
ENDCHAR
STARTCHAR underscore
ENCODING 95
SWIDTH 500 0
DWIDTH 21 0
BBX 21 5 0 -6
BITMAP
FFFFF8
FFFFF8
FFFFF8
FFFFF8
FFFFF8
ENDCHAR
STARTCHAR grave
ENCODING 96
SWIDTH 560 0
DWIDTH 24 0
BBX 11 11 3 24
BITMAP
0800
1C00
3E00
7F00
FF80
7FC0
3FE0
0FE0
07E0
03C0
0100
ENDCHAR
STARTCHAR a
ENCODING 97
SWIDTH 536 0
DWIDTH 23 0
BBX 18 20 2 0
BITMAP
07F800
3FFE00
FFFF00
7FFF80
7FFFC0
3C3FC0
201FC0
007FC0
0FFFC0
3FFFC0
7FFFC0
FFFFC0
FF9FC0
FE1FC0
FE3FC0
FFFFC0
FFFFC0
7FFFC0
3FEFC0
1F8000
ENDCHAR
STARTCHAR b
ENCODING 98
SWIDTH 580 0
DWIDTH 24 0
BBX 21 30 2 0
BITMAP
FF0000
FF0000
FF0000
FF0000
FF0000
FF0000
FF0000
FF0000
FF0000
FF0000
FF3F00
FFFF80
FFFFC0
FFFFE0
FFFFF0
FF8FF0
FF07F0
FF07F8
FF07F8
FF07F8
FF07F8
FF07F8
FF07F8
FF07F0
FF8FF0
FFFFE0
FFFFE0
FFFFC0
FCFF80
003E00
ENDCHAR
STARTCHAR c
ENCODING 99
SWIDTH 472 0
DWIDTH 20 0
BBX 18 20 1 0
BITMAP
00FE00
07FF80
0FFFC0
1FFF00
3FFF00
7FC200
7F8000
7F0000
FF0000
FF0000
FF0000
FF0000
7F0000
7F8000
7FC300
3FFF00
1FFF80
0FFFC0
07FF80
01FE00
ENDCHAR
STARTCHAR d
ENCODING 100
SWIDTH 580 0
DWIDTH 24 0
BBX 20 30 2 0
BITMAP
0007F0
0007F0
0007F0
0007F0
0007F0
0007F0
0007F0
0007F0
0007F0
0007F0
07E7F0
1FF7F0
3FFFF0
7FFFF0
7FFFF0
FF1FF0
FF0FF0
FE07F0
FE07F0
FE07F0
FE07F0
FE07F0
FE07F0
FF0FF0
FF0FF0
7FFFF0
7FFFF0
3FFFF0
1FF3F0
07E000
ENDCHAR
STARTCHAR e
ENCODING 101
SWIDTH 526 0
DWIDTH 22 0
BBX 20 20 1 0
BITMAP
01FC00
07FF00
0FFF80
1FFFC0
3FFFE0
7F07E0
7E07E0
7FFFE0
FFFFF0
FFFFF0
FFFFF0
FFFFE0
7E0000
7F0000
7FC180
3FFFC0
1FFFC0
0FFFE0
07FFC0
01FE00
ENDCHAR
STARTCHAR f
ENCODING 102
SWIDTH 360 0
DWIDTH 15 0
BBX 15 30 1 0
BITMAP
00FE
03FE
07FE
0FFE
0FFC
1FE0
1FC0
1FC0
1FC0
1FC0
FFF8
FFF8
FFF8
FFF8
FFF8
1FC0
1FC0
1FC0
1FC0
1FC0
1FC0
1FC0
1FC0
1FC0
1FC0
1FC0
1FC0
1FC0
1FC0
1FC0
ENDCHAR
STARTCHAR g
ENCODING 103
SWIDTH 546 0
DWIDTH 23 0
BBX 21 29 1 -9
BITMAP
03FFF8
0FFFF8
1FFFF8
3FFFF8
7FFFF8
7F1FC0
7F0FC0
7F0FC0
7F1FC0
7FFFC0
3FFF80
1FFF80
1FFF00
3FFC00
3E0000
7E0000
7FFF80
3FFFE0
3FFFF0
1FFFF8
3FFFF8
7C03F8
FC03F8
FE07F8
FFFFF0
7FFFF0
7FFFE0
3FFF80
07FC00
ENDCHAR
STARTCHAR h
ENCODING 104
SWIDTH 582 0
DWIDTH 24 0
BBX 20 30 2 0
BITMAP
FF0000
FF0000
FF0000
FF0000
FF0000
FF0000
FF0000
FF0000
FF0000
FF0000
FE1F00
FE7FC0
FFFFE0
FFFFE0
FFFFF0
FFFFF0
FF8FF0
FF07F0
FF07F0
FF07F0
FF07F0
FF07F0
FF07F0
FF07F0
FF07F0
FF07F0
FF07F0
FF07F0
FF07F0
FF07F0
ENDCHAR
STARTCHAR i
ENCODING 105
SWIDTH 288 0
DWIDTH 12 0
BBX 8 30 2 0
BITMAP
3E
7F
FF
FF
FF
7E
3C
00
00
00
FF
FF
FF
FF
FF
FF
FF
FF
FF
FF
FF
FF
FF
FF
FF
FF
FF
FF
FF
FF
ENDCHAR
STARTCHAR j
ENCODING 106
SWIDTH 290 0
DWIDTH 12 0
BBX 12 39 -2 -9
BITMAP
03E0
07F0
0FF0
0FF0
0FF0
07F0
03C0
0000
0000
0000
07F0
07F0
07F0
07F0
07F0
07F0
07F0
07F0
07F0
07F0
07F0
07F0
07F0
07F0
07F0
07F0
07F0
07F0
07F0
07F0
07F0
0FF0
0FF0
0FE0
7FE0
FFE0
FFC0
FF80
FE00
ENDCHAR
STARTCHAR k
ENCODING 107
SWIDTH 568 0
DWIDTH 24 0
BBX 22 30 2 0
BITMAP
FE0000
FE0000
FE0000
FE0000
FE0000
FE0000
FE0000
FE0000
FE0000
FE0000
FE07F8
FE0FF0
FE1FE0
FE3FC0
FE7F80
FEFF00
FFFE00
FFFE00
FFFC00
FFFE00
FFFE00
FFFF00
FFFF80
FFBF80
FF1FC0
FE1FE0
FE0FE0
FE0FF0
FE07F8
FE03FC
ENDCHAR
STARTCHAR l
ENCODING 108
SWIDTH 298 0
DWIDTH 13 0
BBX 10 30 2 0
BITMAP
FF00
FF00
FF00
FF00
FF00
FF00
FF00
FF00
FF00
FF00
FF00
FF00
FF00
FF00
FF00
FF00
FF00
FF00
FF00
FF00
FF00
FF00
FF00
FF00
7F00
7FC0
7FC0
3FC0
3FC0
0FC0
ENDCHAR
STARTCHAR m
ENCODING 109
SWIDTH 868 0
DWIDTH 36 0
BBX 32 21 2 0
BITMAP
001F01F0
FC7FC7FC
FEFFCFFE
FFFFFFFE
FFFFFFFF
FFFFFFFF
FF8FFCFF
FF07F87F
FF07F07F
FF07F07F
FF07F07F
FF07F07F
FF07F07F
FF07F07F
FF07F07F
FF07F07F
FF07F07F
FF07F07F
FF07F07F
FF07F07F
FF07F07F
ENDCHAR
STARTCHAR n
ENCODING 110
SWIDTH 582 0
DWIDTH 24 0
BBX 20 21 2 0
BITMAP
001F00
FC7FC0
FEFFE0
FFFFE0
FFFFF0
FFFFF0
FF8FF0
FF07F0
FF07F0
FF07F0
FF07F0
FF07F0
FF07F0
FF07F0
FF07F0
FF07F0
FF07F0
FF07F0
FF07F0
FF07F0
FF07F0
ENDCHAR
STARTCHAR o
ENCODING 111
SWIDTH 560 0
DWIDTH 24 0
BBX 21 20 1 0
BITMAP
01FC00
07FF00
0FFFC0
1FFFE0
3FFFF0
7F8FF0
7F07F8
7F07F8
FF03F8
FF03F8
FF03F8
FF03F8
7F07F8
7F07F8
7F8FF0
3FFFF0
1FFFE0
0FFFC0
07FF00
01FC00
ENDCHAR
STARTCHAR p
ENCODING 112
SWIDTH 580 0
DWIDTH 24 0
BBX 21 29 2 -9
BITMAP
FC3F00
FEFF80
FFFFE0
FFFFE0
FFFFF0
FF8FF0
FF07F0
FF07F8
FF07F8
FF07F8
FF07F8
FF07F8
FF07F8
FF07F0
FF8FF0
FFFFE0
FFFFE0
FFFFC0
FEFF80
FF3E00
FF0000
FF0000
FF0000
FF0000
FF0000
FF0000
FF0000
FF0000
FF0000
ENDCHAR
STARTCHAR q
ENCODING 113
SWIDTH 580 0
DWIDTH 24 0
BBX 20 27 2 -7
BITMAP
07E3F0
1FFBF0
3FFFF0
7FFFF0
7FFFF0
FF1FF0
FF0FF0
FE07F0
FE07F0
FE07F0
FE07F0
FE07F0
FE07F0
FF0FF0
FF0FF0
7FFFF0
7FFFF0
3FFFF0
1FF7F0
07E7F0
0007F0
0007F0
0007F0
0007F0
0007F0
0007F0
0007F0
ENDCHAR
STARTCHAR r
ENCODING 114
SWIDTH 418 0
DWIDTH 18 0
BBX 16 21 2 0
BITMAP
001F
FC7E
FEFE
FFFE
FFFE
FFFE
FFC0
FF80
FF00
FF00
FF00
FF00
FF00
FF00
FF00
FF00
FF00
FF00
FF00
FF00
FF00
ENDCHAR
STARTCHAR s
ENCODING 115
SWIDTH 452 0
DWIDTH 19 0
BBX 17 20 1 0
BITMAP
03F800
1FFE00
3FFF80
3FFF00
7FFE00
7F0E00
7F0400
7FC000
7FF800
3FFE00
1FFF00
07FF00
00FF80
303F80
3C3F80
7FFF80
FFFF00
FFFE00
3FFC00
0FF000
ENDCHAR
STARTCHAR t
ENCODING 116
SWIDTH 400 0
DWIDTH 17 0
BBX 15 27 1 0
BITMAP
0FC0
1FC0
1FC0
1FC0
1FC0
1FC0
1FC0
FFFC
FFFC
FFFC
FFFC
FFFC
3FC0
3FC0
3FC0
3FC0
3FC0
3FC0
3FC0
3FC0
3FC0
1FE0
1FFC
1FFC
0FFE
07FE
01FC
ENDCHAR
STARTCHAR u
ENCODING 117
SWIDTH 578 0
DWIDTH 24 0
BBX 20 20 2 0
BITMAP
FE07F0
FE07F0
FE07F0
FE07F0
FE07F0
FE07F0
FE07F0
FE07F0
FE07F0
FE07F0
FE07F0
FE07F0
FF0FF0
FF1FF0
FFFFF0
7FFFF0
7FFFF0
3FFBF0
3FF3F0
0FC000
ENDCHAR
STARTCHAR v
ENCODING 118
SWIDTH 544 0
DWIDTH 23 0
BBX 22 20 0 0
BITMAP
FF01FC
7F01FC
7F01FC
3F81F8
3F83F8
3F83F8
1F83F0
1FC7F0
1FC7F0
0FC7E0
0FC7E0
0FEFE0
07EFC0
07EFC0
07EFC0
03FF80
03FF80
01FF80
01FF00
01FF00
ENDCHAR
STARTCHAR w
ENCODING 119
SWIDTH 798 0
DWIDTH 34 0
BBX 32 20 1 0
BITMAP
FE07E07F
FE0FE07E
7F0FF0FE
7F0FF0FE
7F0FF0FC
7F0FF0FC
3F1FF8FC
3F9FF9FC
3F9EF9F8
3F9EF9F8
1FBEF9F8
1FBE7DF8
1FBE7DF8
1FBE7DF0
0FFC7FF0
0FFC7FF0
0FFC3FF0
0FFC3FE0
07FC3FE0
07F83FE0
ENDCHAR
STARTCHAR x
ENCODING 120
SWIDTH 540 0
DWIDTH 23 0
BBX 21 20 1 0
BITMAP
FF07F8
7F07F0
7F8FE0
3FCFE0
1FCFC0
1FDFC0
0FFF80
07FF00
07FF00
03FE00
07FE00
07FF00
0FFF00
0FFF80
1FBF80
3F9FC0
3F9FE0
7F0FE0
FF0FF0
FE07F8
ENDCHAR
STARTCHAR y
ENCODING 121
SWIDTH 542 0
DWIDTH 23 0
BBX 22 29 0 -9
BITMAP
FF01FC
7F01FC
7F81F8
3F83F8
3F83F8
1F83F0
1FC3F0
1FC7F0
0FC7E0
0FE7E0
07E7E0
07EFC0
07EFC0
03FFC0
03FF80
01FF80
01FF80
01FF00
00FF00
00FF00
00FE00
00FE00
00FC00
01FC00
1FF800
1FF800
1FF000
1FE000
3F8000
ENDCHAR
STARTCHAR z
ENCODING 122
SWIDTH 474 0
DWIDTH 20 0
BBX 17 20 2 0
BITMAP
7FFF80
7FFF80
7FFF80
7FFF00
7FFF00
01FE00
01FC00
03FC00
07F800
07F000
0FF000
1FE000
1FC000
3FC000
7F8000
7FFF80
FFFF80
FFFF80
FFFF80
FFFF80
ENDCHAR
STARTCHAR braceleft
ENCODING 123
SWIDTH 360 0
DWIDTH 15 0
BBX 12 36 1 -6
BITMAP
03F0
07F0
0FF0
0FF0
0FC0
1F80
1F80
1F80
0F80
0F80
0F80
0F80
0F80
0F80
1F80
3F80
FF80
FF00
FC00
FF00
FF80
3F80
1F80
0F80
0F80
0F80
0F80
0F80
1F80
1F80
1F80
1FC0
0FF0
0FF0
07F0
03F0
ENDCHAR
STARTCHAR bar
ENCODING 124
SWIDTH 278 0
DWIDTH 12 0
BBX 4 42 4 -11
BITMAP
F0
F0
F0
F0
F0
F0
F0
F0
F0
F0
F0
F0
F0
F0
F0
F0
F0
F0
F0
F0
F0
F0
F0
F0
F0
F0
F0
F0
F0
F0
F0
F0
F0
F0
F0
F0
F0
F0
F0
F0
F0
F0
ENDCHAR
STARTCHAR braceright
ENCODING 125
SWIDTH 360 0
DWIDTH 15 0
BBX 12 36 2 -6
BITMAP
FC00
FE00
FF00
FF00
3F80
1F80
1F80
1F80
1F80
1F00
1F00
1F00
1F00
1F00
1F80
1FC0
1FF0
0FF0
03F0
0FF0
1FF0
1FC0
1F80
1F00
1F00
1F00
1F00
1F80
1F80
1F80
1F80
3F80
FF00
FF00
FF00
FC00
ENDCHAR
STARTCHAR asciitilde
ENCODING 126
SWIDTH 540 0
DWIDTH 23 0
BBX 21 8 1 10
BITMAP
0F8000
1FE040
3FF1E0
7FFFF0
FFFFF8
38FFE0
103FC0
001F00
ENDCHAR
ENDFONT
